<svg xmlns="http://www.w3.org/2000/svg" width="193.269" height="55.207" viewBox="0 0 193.269 55.207">
  <g id="Group_316" data-name="Group 316" transform="translate(-172.943 -76.649)">
    <g id="Group_314" data-name="Group 314" transform="translate(172.943 76.649)">
      <path id="Path_78" data-name="Path 78" d="M221.55,93.344v-1.8l-1.472,1.8-8.687,10.629,9.8,12.015.36.441V93.344Z" transform="translate(-174.01 -77.062)" fill="#fff"/>
      <path id="Path_79" data-name="Path 79" d="M213.036,115.575l-6.209-7.7-.016.019-9.967-12.3.006-.016-2.144-2.649L189.5,86.49h6.9l5.27,6.441,5.316,6.5,5.3-6.5,3.9-4.785-19.472-11.5-23.77,14.034v27.139l12.935,7.636,8.021-9.884,8.2-10.1,3.325,4.1-4.889,6-10.2,12.512,6.386,3.769,19.953-11.78ZM192.9,107.51c0,4.557-3.906,5.084-6.843,5.084-3.159,0-6.785-.578-6.785-5.084V98.484h3.789v8.54c0,1.436,0,1.919,3.026,1.919s3.027-.482,3.027-1.914V98.484H192.9Z" transform="translate(-172.943 -76.649)" fill="#fff"/>
    </g>
    <g id="Group_315" data-name="Group 315" transform="translate(235.863 97.243)">
      <path id="Path_80" data-name="Path 80" d="M250.379,97.831h2.245V112.8h-2.661L239.9,100.825V112.8h-2.245V97.831h2.661L250.379,109.8Z" transform="translate(-237.659 -97.831)" fill="#fff"/>
      <path id="Path_81" data-name="Path 81" d="M270.279,100.076H258.807v4.116h9.229v2.245h-9.229v4.116h11.472V112.8H256.562V97.831h13.717Z" transform="translate(-238.184 -97.831)" fill="#fff"/>
      <path id="Path_82" data-name="Path 82" d="M289.233,97.831v2.245h-6.36V112.8h-2.244v-12.72h-6.36V97.831Z" transform="translate(-238.675 -97.831)" fill="#fff"/>
      <path id="Path_83" data-name="Path 83" d="M315.814,97.831,310.368,112.8H308.54l-4.261-11.66-4.239,11.66-.042-.02.02.02H298.21l-5.446-14.965h2.391l3.97,10.912,3.97-10.912h2.39l3.971,10.912,3.97-10.912Z" transform="translate(-239.188 -97.831)" fill="#fff"/>
      <path id="Path_84" data-name="Path 84" d="M331.093,97.831a2.7,2.7,0,0,1,2.7,2.7v9.561a2.7,2.7,0,0,1-2.7,2.7h-9.56a2.7,2.7,0,0,1-2.7-2.7v-9.561a2.7,2.7,0,0,1,2.7-2.7Zm0,12.721a.462.462,0,0,0,.458-.458v-9.561a.462.462,0,0,0-.458-.457h-9.56a.461.461,0,0,0-.457.457v9.561a.461.461,0,0,0,.457.458Z" transform="translate(-239.912 -97.831)" fill="#fff"/>
      <path id="Path_85" data-name="Path 85" d="M353.126,104.753a2.71,2.71,0,0,1-2.7,2.7h-1.517l4.219,5.029v.312h-2.66l-4.489-5.342h-5.113a3.181,3.181,0,0,1-.458-.041V112.8h-2.244V97.853h12.262a2.71,2.71,0,0,1,2.7,2.7Zm-2.7.457a.461.461,0,0,0,.458-.457v-4.2a.461.461,0,0,0-.458-.457h-9.56a.461.461,0,0,0-.458.457v4.2a.461.461,0,0,0,.458.457Z" transform="translate(-240.448 -97.832)" fill="#fff"/>
      <path id="Path_86" data-name="Path 86" d="M371.318,97.831v.312l-6.007,7.17,6.007,7.17v.312h-2.66l-5.342-6.359H359.16V112.8h-2.245V97.831h2.245v6.36h4.156l5.342-6.36Z" transform="translate(-240.969 -97.831)" fill="#fff"/>
    </g>
  </g>
</svg>
